inDegrees=no
num_controls=7
num_derivatives=13
num_iterations=137
num_multipliers=7
num_parameters=0
num_slacks=7
num_states=26
objective=5.778036
objective_accelerations=0.761822
objective_balance=0.035837
objective_effort=0.380146
objective_height=4.531307
objective_ligament=0.068924
solver_duration=1524.634337
status=Solve_Succeeded
success=true
DataType=double
version=3
OpenSimVersion=4.4-2022-07-23-0e9fedc
endheader
time	/jointset/ground_pelvis/pelvis_tilt/value	/jointset/ground_pelvis/pelvis_tx/value	/jointset/ground_pelvis/pelvis_ty/value	/jointset/hip_l/hip_flexion_l/value	/jointset/hip_l/hip_adduction_l/value	/jointset/hip_l/hip_rotation_l/value	/jointset/back/lumbar_extension/value	/jointset/patellofemoral_l/patellar_flexion_l/value	/jointset/knee_l/knee_flexion_l/value	/jointset/knee_l/knee_adduction_l/value	/jointset/knee_l/knee_rotation_l/value	/jointset/ankle_l/ankle_angle_l/value	/jointset/subtalar_l/subtalar_angle_l/value	/jointset/ground_pelvis/pelvis_tilt/speed	/jointset/ground_pelvis/pelvis_tx/speed	/jointset/ground_pelvis/pelvis_ty/speed	/jointset/hip_l/hip_flexion_l/speed	/jointset/hip_l/hip_adduction_l/speed	/jointset/hip_l/hip_rotation_l/speed	/jointset/back/lumbar_extension/speed	/jointset/patellofemoral_l/patellar_flexion_l/speed	/jointset/knee_l/knee_flexion_l/speed	/jointset/knee_l/knee_adduction_l/speed	/jointset/knee_l/knee_rotation_l/speed	/jointset/ankle_l/ankle_angle_l/speed	/jointset/subtalar_l/subtalar_angle_l/speed	/forceset/tau_hip_flexion_l	/forceset/tau_hip_adduction_l	/forceset/tau_hip_rotation_l	/forceset/tau_knee_flexion_l	/forceset/tau_ankle_angle_l	/forceset/tau_subtalar_angle_l	/forceset/tau_lumbar_extension	lambda_cid13_p0	lambda_cid13_p1	lambda_cid13_p2	lambda_cid13_p3	lambda_cid13_p4	lambda_cid13_p5	lambda_cid14_p0	/jointset/ground_pelvis/pelvis_tilt/accel	/jointset/ground_pelvis/pelvis_tx/accel	/jointset/ground_pelvis/pelvis_ty/accel	/jointset/hip_l/hip_flexion_l/accel	/jointset/hip_l/hip_adduction_l/accel	/jointset/hip_l/hip_rotation_l/accel	/jointset/back/lumbar_extension/accel	/jointset/patellofemoral_l/patellar_flexion_l/accel	/jointset/knee_l/knee_flexion_l/accel	/jointset/knee_l/knee_adduction_l/accel	/jointset/knee_l/knee_rotation_l/accel	/jointset/ankle_l/ankle_angle_l/accel	/jointset/subtalar_l/subtalar_angle_l/accel	gamma_cid13_p0	gamma_cid13_p1	gamma_cid13_p2	gamma_cid13_p3	gamma_cid13_p4	gamma_cid13_p5	gamma_cid14_p0
0.5	-0.4897178720952972	-0.119122228053377	0.7399170028294723	1.293433823613596	-0.4334536810264045	-0.2539885898079431	-0.2580132095506095	0.6867671786595216	0.6867671786595274	-0.1659852597328247	-0.1579664515828254	-0.0773365530838903	-0.1211976083082929	-1.166736674642426	-0.3944113395091949	-0.5856890040570411	2.934170031900381	-0.224745163077253	0.6413135038558356	-0.08338523074614007	1.654254756590159	1.654254756590148	0.02549816892823733	-0.09554020981293192	-0.01201734179948775	-0.2425078098012323	-0.232880886071195	-0.001493574372193821	-0.004056681930812167	-0.1841469394126523	0.149902693631141	0.06332194419756465	0.2084288805105742	14.08603863765177	-31.9959553471491	7.082572605550983	-14.51800389519522	-523.6119906343062	-65.86766332861998	-30.78774891159053	1.154204555479823	0.9057374204316184	-0.3426341652692902	-2.017088142215981	0.6132453616742272	-0.03352727597574638	1.150654584371374	-1.125548254579368	-1.125548254579367	0.05911769249504992	0.2634840855977877	-0.03514073572371607	0.6370892562155486	-2.04681449965816e-08	-7.865035033790069e-07	6.047198912493629e-08	-2.607532332663524e-07	-2.776087415683224e-07	4.416869918444157e-07	-1.756274449939692e-07
0.51	-0.5013247411807362	-0.1230206223100613	0.7340443090977542	1.322669125871038	-0.4356711707142119	-0.247579070472779	-0.258791483915844	0.7032512508264052	0.7032512508264216	-0.1657287324105346	-0.158910157178274	-0.07745889830074826	-0.123591749221619	-1.154464071745229	-0.385234112277748	-0.588722124553403	2.912491534071554	-0.2187285034881186	0.6405037578011056	-0.07235575150239421	1.642338308431996	1.642338308431875	0.02581175327630226	-0.09319346738823821	-0.01246862990484347	-0.2363054308091653	-0.2405525275751432	-0.0008896358448957433	-0.004050282489692131	-0.1855478655325653	0.1520976548902354	0.06467102530809499	0.2140156420808246	14.502860052267	-32.60471373070949	7.122364846877567	-14.81627153672733	-527.9762962022564	-65.45730108502241	-30.05613600605752	1.289751003832089	0.9286779898667279	-0.2645644596393383	-2.303064912767061	0.5996490971874814	-0.1178380020802931	1.066178215011371	-1.257862848500502	-1.257862848516942	0.01799567486165242	0.2214719622577435	-0.05266689651440351	0.6141583542102494	-3.652342174332959e-08	-7.179607813374585e-07	1.141115652348448e-07	-2.310017206890628e-07	-2.694984594775894e-07	4.496096774604077e-07	-1.753105889768966e-07
0.52	-0.5128036916678024	-0.126826251771358	0.7281451014675095	1.351675676288299	-0.4378277392381719	-0.2411802765445208	-0.2594620467644984	0.7196095245613081	0.7196095245613157	-0.1654689658711082	-0.1598301548211401	-0.07758626520836337	-0.1259233971183238	-1.14115295496832	-0.3758583804316855	-0.5909917837622853	2.888419663860696	-0.2125609303128452	0.6391684224720579	-0.06184292743319298	1.629095070191213	1.629095070190982	0.02614601238039211	-0.09079861930943338	-0.01302167995311035	-0.2300092064767604	-0.2482241690789204	-0.0002856973174693719	-0.004043883048971177	-0.1869487916523872	0.1542926161493797	0.06602010641878277	0.2196024036511643	14.913505139818	-33.21310297342646	7.162911913573072	-15.1142515341034	-532.4343815893747	-65.06787742781624	-29.32821680304556	1.361907331422701	0.9454383433542384	-0.1899419077735219	-2.495762618622299	0.6434280789020816	-0.1386451308393233	1.047323549462666	-1.390906271103493	-1.390906271103436	0.06325264370032255	0.2731052164200438	-0.05549312430660718	0.6558583242829181	-3.989599209125078e-08	-6.655579782753504e-07	1.25273390430184e-07	-2.197340975231169e-07	-2.469939817013627e-07	4.482274465278847e-07	-1.708764062788831e-07
0.53	-0.5241446337964893	-0.1305372591974971	0.7222269959556151	1.380430015466103	-0.4399218851915508	-0.2347972311494201	-0.2600301382204043	0.735828853978339	0.735828853978358	-0.1652057267635572	-0.1607257616586081	-0.07771968208072103	-0.128191625043434	-1.126875083995306	-0.3663210330812866	-0.5925014417941101	2.862069377424124	-0.2062502085340247	0.6373579143001732	-0.05188645397951873	1.614556803589605	1.614556803589606	0.02649977249161174	-0.08831230660517549	-0.01368147409059671	-0.2236290003403868	-0.2556232030643138	0.0001320144312933517	-0.004059079097086871	-0.188372956174076	0.1564425067034806	0.06721741890413882	0.2248971316361376	15.31665551853095	-33.75812584419715	7.197764492949829	-15.31591004313329	-536.7023502259359	-64.5883252567385	-28.60617017138724	1.484783257647506	0.9611509236454697	-0.1123432625792305	-2.761485685345751	0.6277122692776519	-0.2148026080517207	0.9531457095705723	-1.517354588859491	-1.517354588824536	0.02100091632836107	0.2380436795573961	-0.07419354224194279	0.630294085069019	-4.008305317928638e-08	-6.179406696508746e-07	1.251052994602007e-07	-2.122848813634076e-07	-2.229462708650195e-07	4.429547060455009e-07	-1.651214525055163e-07
